<svg fill="#000000" viewBox="0 0 272.987 272.987" xmlns="http://www.w3.org/2000/svg"><path d="M245.083,87.639c-3.958,0-7.169,3.213-7.169,7.168v28.035h-8.013v-6.389c0-15.887-12.928-28.814-28.811-28.814c-8.629,0-16.357,3.834-21.646,9.859c-5.288-6.025-13.017-9.859-21.642-9.859c-8.629,0-16.362,3.834-21.646,9.859c-5.288-6.025-13.019-9.859-21.646-9.859c-8.625,0-16.358,3.834-21.644,9.859c-5.286-6.025-13.019-9.859-21.646-9.859c-15.885,0-28.812,12.928-28.812,28.814v6.389H27.919c-3.955,0-7.168,3.211-7.168,7.168c0,3.956,3.213,7.169,7.168,7.169h14.478v106.993c0,15.887,12.928,28.814,28.812,28.814c8.627,0,16.36-3.832,21.646-9.857c5.286,6.025,13.017,9.857,21.644,9.857s16.358-3.832,21.644-9.857c5.285,6.025,13.019,9.857,21.644,9.857s16.362-3.832,21.646-9.857c5.283,6.025,13.021,9.857,21.646,9.857c15.887,0,28.814-12.928,28.814-28.814V137.184h15.178c3.957,0,7.168-3.213,7.168-7.168V94.812C252.252,90.852,249.036,87.639,245.083,87.639z"></path><path d="M88.472,2.404c-6.461,7.708-9.12,15.87-5.918,25.669c3.16,9.667,12.865,18.533,5.12,28.493c-5.603,7.201,4.467,17.429,10.135,10.137c6.38-8.203,9.138-16.57,5.918-26.75c-2.905-9.185-12.846-18.197-5.12-27.412C104.506,5.505,94.42-4.692,88.472,2.404z"></path><path d="M140.825,66.702c6.385-8.203,9.138-16.57,5.918-26.75c-2.903-9.185-12.847-18.197-5.12-27.412c5.899-7.036-4.191-17.233-10.135-10.137c-6.461,7.708-9.119,15.87-5.917,25.669c3.16,9.667,12.865,18.533,5.12,28.493C125.083,63.767,135.152,73.994,140.825,66.702z"></path><path d="M174.493,2.404c-6.459,7.708-9.119,15.87-5.918,25.669c3.164,9.667,12.867,18.533,5.125,28.493c-5.605,7.201,4.462,17.429,10.132,10.137c6.38-8.203,9.139-16.57,5.918-26.75c-2.907-9.185-12.849-18.197-5.12-27.412C190.529,5.505,180.444-4.692,174.493,2.404z"></path></svg>
