<svg fill="#000000" viewBox="0 0 290.626 290.626" xmlns="http://www.w3.org/2000/svg"><path d="M274.895,281.25c9.58-7.739,15.73-19.566,15.73-32.812c0-21.68-16.439-39.572-37.5-41.911v-43.266c1.467,0.516,3.042,0.802,4.688,0.802c7.753,0,14.063-6.309,14.063-14.063v-32.813c0-10.27-4.908-20.086-13.125-26.25c-5.639-4.233-12.633-6.563-19.688-6.563h-9.298c12.889-0.042,23.36-10.539,23.36-23.436c0-12.923-10.514-23.438-23.438-23.438S206.25,48.014,206.25,60.938c0,12.898,10.473,23.394,23.361,23.436h-9.298c-7.055,0-14.048,2.33-19.688,6.563c-8.217,6.164-13.125,15.98-13.125,26.25v32.813c0,7.753,6.309,14.063,14.063,14.063c1.645,0,3.22-0.286,4.688-0.802v5.489h-14.063v9.375h12.375l-2.93,9.375h-80.887l4.936-23.438h14.944v-9.375H118.07l-10.898,51.769c-1.331-0.127-2.677-0.206-4.045-0.206c-21.675,0-39.572,16.439-41.911,37.5H42.188v-28.125c0-8.714-6-15.989-14.063-18.084V93.751h51.563c7.753,0,14.063-6.309,14.063-14.063V14.063C93.75,6.31,87.441,0.001,79.688,0.001H14.063C6.309,0.001,0,6.31,0,14.063v65.625c0,7.753,6.309,14.062,14.063,14.062h4.688v103.791c-8.063,2.095-14.063,9.37-14.063,18.084v65.625H0v9.375h4.688h37.5h248.438v-9.375H274.895z M51.563,18.751H23.438v56.25h9.375v-18.75h18.75c10.341,0,18.75-8.409,18.75-18.75S61.903,18.751,51.563,18.751z M51.563,46.876h-18.75v-18.75h18.75c5.17,0,9.375,4.205,9.375,9.375S56.733,46.876,51.563,46.876z"></path></svg>
