<svg fill="#000000" viewBox="0 0 128 128" xmlns="http://www.w3.org/2000/svg"><path d="M69,71.6c7.7,0,13.9-6.2,13.9-13.9S76.7,43.8,69,43.8c-7.7,0-13.9,6.2-13.9,13.9S61.3,71.6,69,71.6"></path><path d="M55.9,105.4c0,1.5,1.2,3.5,2.7,3.5v0H65l0,0c1.5,0,3.5-1.9,3.5-3.4V93.6c0-1.5-2-3.4-3.5-3.4h-6.4c-1.4,0-2.6,1.8-2.7,3.2C65.1,93.3,65.1,105.4,55.9,105.4 M50,76c1.5-1.4,3.5-2.3,5.7-2.3h27.4l27.6-27.7c5.9-5.9,13.6,1.8,7.7,7.7L88.2,84.1l0,41.4H52v-20.1H35.6c-3.4,0-6.2-2.8-6.2-6.2c0-1.5,0.5-2.8,1.3-3.9L50,76z"></path><polygon points="6.2,22 9.6,25.4 25.8,8.7 22.5,5.4 15.1,8.2 11.7,4.8 4.9,11.6 8.3,15"></polygon></svg>
