<svg fill="#000000" viewBox="0 0 512.001 512.001" xmlns="http://www.w3.org/2000/svg"><path d="M441.189,162.899v-51.021v-2.761V91.406c0-0.054-0.003-0.108-0.004-0.162c-0.086-24.757-20.251-44.874-45.028-44.874c-24.83,0-45.032,20.202-45.032,45.032v20.476c0,1.702,0.104,3.38,0.289,5.034v45.426c-20.17,2.732-35.771,20.052-35.771,40.96v130.331c0,4.151,3.363,7.514,7.514,7.514h7.069l-8.325,33.924c-0.55,2.241-0.039,4.612,1.386,6.428c1.425,1.816,3.605,2.876,5.912,2.876h22.215v120.115c0,4.151,3.363,7.514,7.514,7.514h35.772h35.771c4.151,0,7.514-3.363,7.514-7.514V384.371H460.2c2.308,0,4.487-1.061,5.912-2.876c1.425-1.816,1.936-4.187,1.386-6.428l-8.325-33.924h7.068c4.151,0,7.514-3.363,7.514-7.514V203.298C473.755,183.512,459.783,166.937,441.189,162.899z"></path><path d="M276.152,0h-33.465c-4.151,0-7.514,3.363-7.514,7.514v493.443c0,4.151,3.363,7.514,7.514,7.514h33.465c4.151,0,7.514-3.363,7.514-7.514V7.514C283.666,3.363,280.302,0,276.152,0z"></path><path d="M134.874,46.37h-32.224c-15.947,0-28.92,12.973-28.92,28.92v42.853c-0.001,21.377,17.391,38.767,38.766,38.767h12.531c21.376,0,38.766-17.391,38.766-38.766V91.406c0-0.03,0-0.06,0-0.09V75.29C163.794,59.343,150.82,46.37,134.874,46.37z"></path><path d="M155.013,161.952h-37.711h-37.71c-22.799,0-41.346,18.548-41.346,41.346v130.331c0,4.151,3.363,7.514,7.514,7.514h28.257v9.622v153.722c0,4.151,3.363,7.514,7.514,7.514h35.772h35.771c4.151,0,7.514-3.363,7.514-7.514V350.764v-9.622h28.257c4.151,0,7.514-3.363,7.514-7.514v-130.33C196.36,180.499,177.812,161.952,155.013,161.952z"></path></svg>
